<svg width="1400" height="420" viewBox="0 0 1400 420" fill="none" xmlns="http://www.w3.org/2000/svg">
  <rect width="1400" height="420" rx="28" fill="#060816"/>
  <rect x="36" y="36" width="1328" height="348" rx="24" fill="url(#bg)"/>
  <circle cx="1120" cy="128" r="120" fill="#7C3AED" fill-opacity="0.24"/>
  <circle cx="300" cy="320" r="140" fill="#38BDF8" fill-opacity="0.16"/>
  <rect x="92" y="102" width="420" height="216" rx="18" fill="#0F172A" stroke="#334155" stroke-width="2"/>
  <rect x="122" y="134" width="180" height="14" rx="7" fill="#38BDF8"/>
  <rect x="122" y="168" width="260" height="10" rx="5" fill="#475569"/>
  <rect x="122" y="190" width="220" height="10" rx="5" fill="#475569"/>
  <rect x="122" y="216" width="200" height="10" rx="5" fill="#475569"/>
  <rect x="122" y="240" width="140" height="10" rx="5" fill="#475569"/>
  <rect x="602" y="102" width="300" height="216" rx="18" fill="#0F172A" stroke="#334155" stroke-width="2"/>
  <rect x="634" y="134" width="140" height="12" rx="6" fill="#22C55E"/>
  <circle cx="646" cy="214" r="34" fill="#38BDF8"/>
  <rect x="702" y="194" width="120" height="10" rx="5" fill="#475569"/>
  <rect x="702" y="216" width="92" height="10" rx="5" fill="#475569"/>
  <rect x="702" y="238" width="108" height="10" rx="5" fill="#475569"/>
  <rect x="1048" y="120" width="220" height="150" rx="16" fill="#111827" stroke="#475569" stroke-width="2"/>
  <rect x="1082" y="152" width="150" height="12" rx="6" fill="#F59E0B"/>
  <rect x="1082" y="182" width="120" height="10" rx="5" fill="#64748B"/>
  <rect x="1082" y="204" width="96" height="10" rx="5" fill="#64748B"/>
  <rect x="1082" y="226" width="132" height="10" rx="5" fill="#64748B"/>
  <text x="92" y="368" fill="#F8FAFC" font-family="Segoe UI, Arial, sans-serif" font-size="36" font-weight="700">Real-Time Collaborative Code Editor</text>
  <text x="92" y="398" fill="#94A3B8" font-family="Segoe UI, Arial, sans-serif" font-size="18">Code together • Sync instantly • Build faster</text>
  <defs>
    <linearGradient id="bg" x1="72" y1="56" x2="1328" y2="360" gradientUnits="userSpaceOnUse">
      <stop stop-color="#111827"/>
      <stop offset="1" stop-color="#1E293B"/>
    </linearGradient>
  </defs>
</svg>